<svg xmlns="http://www.w3.org/2000/svg" version="1.1" viewBox="272.07 273.58 208.55 207.05">  <path d="m278.32 474.66c3.6992 3.6758 8.6992 5.7383 13.914 5.7383 5.2109 0 10.211-2.0625 13.91-5.7383l69.852-70.84 69.855 70.84c5.1445 5.1445 12.645 7.1562 19.676 5.2734s12.523-7.375 14.406-14.406-0.12891-14.531-5.2734-19.676l-70.84-69.855 70.84-69.852c4.3516-5.082 5.832-12.02 3.9336-18.43-1.8945-6.4141-6.9102-11.43-13.324-13.328-6.4141-1.8984-13.352-0.41406-18.434 3.9336l-70.84 69.855-69.852-69.855c-5.082-4.3477-12.02-5.832-18.43-3.9336-6.4141 1.8984-11.43 6.9141-13.328 13.328-1.8984 6.4102-0.41406 13.348 3.9336 18.43l69.855 69.852-69.855 69.855c-3.9844 3.7305-6.2461 8.9453-6.2461 14.402 0 5.4609 2.2617 10.676 6.2461 14.406z"></path> </svg>