<svg xmlns="http://www.w3.org/2000/svg" version="1.1" viewBox="283.65 290.76 184.7 165.75">  <path d="m468.35 326.28c0 1.375-0.59766 2.6758-1.6367 3.582l-35.52 30.781c-1.3984 1.2109-3.3867 1.5117-5.0625 0.72266-1.6875-0.76562-2.7734-2.4492-2.7734-4.3047v-14.207h-104.19v23.68c0 1.4414-0.65234 2.8008-1.7773 3.6992l-23.68 18.941c-1.4258 1.1367-3.375 1.3555-5.0156 0.5625-1.6328-0.78516-2.6797-2.4375-2.6797-4.2617v-71.035c0-2.6172 2.1172-4.7344 4.7344-4.7344h132.6v-14.207c0-1.8555 1.0859-3.5391 2.7695-4.3047 1.6758-0.78125 3.6641-0.48438 5.0625 0.72266l35.52 30.781c1.0469 0.90625 1.6445 2.207 1.6445 3.582zm-5.0508 35.984c-1.6484-0.78516-3.5938-0.56641-5.0156 0.56641l-23.68 18.941c-1.1172 0.90625-1.7734 2.2578-1.7734 3.7031v23.68h-104.19v-9.4727c0-1.7852-1.0039-3.4258-2.5938-4.2305-1.5859-0.81641-3.5-0.64844-4.9453 0.40625l-35.52 26.047c-1.2188 0.89844-1.9336 2.3203-1.9336 3.8242 0 1.5078 0.71484 2.9258 1.9336 3.8203l35.52 26.047c1.4258 1.0508 3.3398 1.2109 4.9453 0.40625 1.5898-0.80078 2.5938-2.4414 2.5938-4.2266v-9.4727h132.6c2.6172 0 4.7344-2.1172 4.7344-4.7344v-71.035c0-1.8242-1.0469-3.4766-2.6797-4.2695z" fill="#666463"></path> </svg>