<svg xmlns="http://www.w3.org/2000/svg" version="1.1" viewBox="139.21 139.21 473.59 473.59">  <defs>   <clipPath id="a">    <path d="m139.21 139.21h473.58v473.58h-473.58z"></path>   </clipPath>  </defs>  <g clip-path="url(#a)">   <path d="m 269.05 139.21 h 213.91 c 128.04 0.79 129.04 0.79 129.84 129.84 v 213.91 c 2.2 126.04 -1.8 125.04 -129.84 129.84 h -213.91 c -127.05 0.2 -128.05 -0.8 -129.84 -129.84 v -213.91 c 0.79 -128.05 0.79 -129.05 129.84 -129.84 z m 34.055 173.47 l 72.367 -87.266 l 73.434 87.266 c -14.898 -1.0625 -28.734 -1.0625 -42.57 -1.0625 v 112.81 c 0 4.2578 -3.1914 7.4492 -7.4492 7.4492 h -45.762 c -4.2578 0 -7.4492 -3.1914 -7.4492 -7.4492 v -112.81 c -14.898 0 -28.734 0 -42.57 1.0625 z m -29.797 148.99 h 205.39 v -51.082 c 0 -4.2578 3.1914 -7.4492 8.5156 -7.4492 h 13.836 c 5.3203 0 8.5156 3.1914 8.5156 7.4492 v 71.305 c 0 6.3867 -5.3203 10.641 -10.641 10.641 h -245.84 c -6.3867 0 -10.641 -4.2578 -10.641 -10.641 l -1.0625 -71.305 c 0 -4.2578 4.2578 -7.4492 8.5156 -7.4492 h 14.898 c 4.2578 0 8.5156 3.1914 8.5156 7.4492 v 51.082 z" fill-rule="evenodd" fill="#666463"></path>  </g> </svg>