<svg xmlns="http://www.w3.org/2000/svg" version="1.1" viewBox="168.8 168.81 414.39 414.39">  <path d="m538.79 168.81h-325.59c-11.77 0.015625-23.055 4.6953-31.379 13.02s-13.004 19.609-13.02 31.379v325.59c0.015625 11.773 4.6953 23.059 13.02 31.383s19.609 13.004 31.379 13.016h325.59c11.773-0.011718 23.059-4.6914 31.383-13.016s13.004-19.609 13.016-31.383v-325.59c-0.011718-11.77-4.6914-23.055-13.016-31.379s-19.609-13.004-31.383-13.02zm-29.598 320.75h-70.859v19.641c0 6.1289-4.9688 11.102-11.102 11.102-6.1289 0-11.098-4.9727-11.098-11.102v-19.641h-173.33c-6.1328 0-11.102-4.9688-11.102-11.098 0-6.1328 4.9688-11.102 11.102-11.102h173.33v-19.633c0-6.1289 4.9688-11.102 11.098-11.102 6.1328 0 11.102 4.9727 11.102 11.102v19.633h70.859c6.1289 0 11.102 4.9688 11.102 11.102 0 6.1289-4.9727 11.098-11.102 11.098zm0-102.45h-193.81v19.641c0 6.1289-4.9688 11.098-11.098 11.098-6.1328 0-11.102-4.9688-11.102-11.098v-19.641h-50.379c-6.1328 0-11.102-4.9688-11.102-11.102 0-6.1289 4.9688-11.098 11.102-11.098h50.383l-0.003906-19.641c0-6.1289 4.9688-11.102 11.102-11.102 6.1289 0 11.098 4.9727 11.098 11.102v19.641h193.81c6.1289 0 11.102 4.9688 11.102 11.098 0 6.1328-4.9727 11.102-11.102 11.102zm0-102.46h-122.09v19.641c0 6.1289-4.9688 11.098-11.102 11.098-6.1289 0-11.098-4.9688-11.098-11.098v-19.637h-122.09c-6.1328 0-11.102-4.9688-11.102-11.098s4.9688-11.102 11.102-11.102h122.09v-19.637c0-6.1328 4.9688-11.102 11.098-11.102 6.1328 0 11.102 4.9688 11.102 11.102v19.633h122.09c6.1289 0 11.102 4.9688 11.102 11.098 0 6.1328-4.9727 11.102-11.102 11.102z" fill="#666463"></path> </svg>